{
  "accessors": [
    {
      "bufferView": 2,
      "componentType": 5126,
      "count": 611,
      "max": [
        -126.71396636962891,
        33.146041870117188,
        3.25
      ],
      "min": [
        -139.59384155273438,
        19.051033020019531,
        -2.0816681711721685e-17
      ],
      "type": "VEC3"
    },
    {
      "bufferView": 2,
      "byteOffset": 7332,
      "componentType": 5126,
      "count": 611,
      "max": [
        1,
        1,
        1
      ],
      "min": [
        -1,
        -1,
        -1
      ],
      "type": "VEC3"
    },
    {
      "bufferView": 3,
      "componentType": 5126,
      "count": 611,
      "max": [
        1,
        1,
        1,
        1
      ],
      "min": [
        -1,
        -1,
        -1,
        -1
      ],
      "type": "VEC4"
    },
    {
      "bufferView": 1,
      "componentType": 5126,
      "count": 611,
      "max": [
        0.99853515625,
        0.88891172409057617
      ],
      "min": [
        0,
        0
      ],
      "type": "VEC2"
    },
    {
      "bufferView": 0,
      "componentType": 5125,
      "count": 1131,
      "max": [
        610
      ],
      "min": [
        0
      ],
      "type": "SCALAR"
    },
    {
      "bufferView": 2,
      "byteOffset": 14664,
      "componentType": 5126,
      "count": 92,
      "max": [
        -127.11396026611328,
        33.146041870117188,
        0
      ],
      "min": [
        -139.19384765625,
        19.051033020019531,
        0
      ],
      "type": "VEC3"
    },
    {
      "bufferView": 2,
      "byteOffset": 15768,
      "componentType": 5126,
      "count": 92,
      "max": [
        0,
        0,
        1
      ],
      "min": [
        0,
        0,
        1
      ],
      "type": "VEC3"
    },
    {
      "bufferView": 3,
      "byteOffset": 9776,
      "componentType": 5126,
      "count": 92,
      "max": [
        -1,
        8.3866507338825613e-06,
        0,
        1
      ],
      "min": [
        -1,
        -5.8867453844868578e-06,
        0,
        1
      ],
      "type": "VEC4"
    },
    {
      "bufferView": 1,
      "byteOffset": 4888,
      "componentType": 5126,
      "count": 92,
      "max": [
        0.99515599012374878,
        0.99329113960266113
      ],
      "min": [
        0,
        0
      ],
      "type": "VEC2"
    },
    {
      "bufferView": 0,
      "byteOffset": 4524,
      "componentType": 5125,
      "count": 276,
      "max": [
        91
      ],
      "min": [
        0
      ],
      "type": "SCALAR"
    }
  ],
  "asset": {
    "extras": {
      "author": "reinabada (https://sketchfab.com/reinabada)",
      "license": "CC-BY-4.0 (http://creativecommons.org/licenses/by/4.0/)",
      "source": "https://sketchfab.com/models/af49eecc9b9e44929fa2fe5341ae1931",
      "title": "Aptnew"
    },
    "generator": "Sketchfab-4.12.0",
    "version": "2.0"
  },
  "bufferViews": [
    {
      "buffer": 0,
      "byteLength": 5628,
      "byteOffset": 0,
      "name": "floatBufferViews",
      "target": 34963
    },
    {
      "buffer": 0,
      "byteLength": 5624,
      "byteOffset": 5628,
      "byteStride": 8,
      "name": "floatBufferViews",
      "target": 34962
    },
    {
      "buffer": 0,
      "byteLength": 16872,
      "byteOffset": 11252,
      "byteStride": 12,
      "name": "floatBufferViews",
      "target": 34962
    },
    {
      "buffer": 0,
      "byteLength": 11248,
      "byteOffset": 28124,
      "byteStride": 16,
      "name": "floatBufferViews",
      "target": 34962
    }
  ],
  "buffers": [
    {
      "byteLength": 39372,
      "uri": "scene.bin"
    }
  ],
  "images": [
    {
      "uri": "textures/FloorMaterial_baseColor.jpeg"
    },
    {
      "uri": "textures/wallmaterial_baseColor.jpeg"
    }
  ],
  "materials": [
    {
      "doubleSided": true,
      "emissiveFactor": [
        0,
        0,
        0
      ],
      "name": "wallmaterial",
      "pbrMetallicRoughness": {
        "baseColorFactor": [
          1,
          1,
          1,
          1
        ],
        "baseColorTexture": {
          "index": 1,
          "texCoord": 0
        },
        "metallicFactor": 0,
        "roughnessFactor": 0.59999999999999998
      }
    },
    {
      "doubleSided": true,
      "emissiveFactor": [
        0,
        0,
        0
      ],
      "name": "FloorMaterial",
      "pbrMetallicRoughness": {
        "baseColorFactor": [
          1,
          1,
          1,
          1
        ],
        "baseColorTexture": {
          "index": 0,
          "texCoord": 0
        },
        "metallicFactor": 0,
        "roughnessFactor": 0.59999999999999998
      }
    }
  ],
  "meshes": [
    {
      "name": "polySurface9_wallmaterial_0",
      "primitives": [
        {
          "attributes": {
            "NORMAL": 1,
            "POSITION": 0,
            "TANGENT": 2,
            "TEXCOORD_0": 3
          },
          "indices": 4,
          "material": 0,
          "mode": 4
        }
      ]
    },
    {
      "name": "Apt_Floor2_FloorMaterial_0",
      "primitives": [
        {
          "attributes": {
            "NORMAL": 6,
            "POSITION": 5,
            "TANGENT": 7,
            "TEXCOORD_0": 8
          },
          "indices": 9,
          "material": 1,
          "mode": 4
        }
      ]
    }
  ],
  "nodes": [
    {
      "children": [
        1
      ],
      "name": "RootNode (gltf orientation matrix)",
      "rotation": [
        -0.70710678118654746,
        -0,
        -0,
        0.70710678118654757
      ]
    },
    {
      "children": [
        2
      ],
      "name": "RootNode (model correction matrix)"
    },
    {
      "children": [
        3
      ],
      "matrix": [
        1,
        0,
        0,
        0,
        0,
        0,
        1,
        0,
        0,
        -1,
        0,
        0,
        0,
        0,
        0,
        1
      ],
      "name": "994682e2535344a595b763ef6d976905.fbx"
    },
    {
      "children": [
        4,
        7
      ],
      "name": "RootNode"
    },
    {
      "children": [
        5
      ],
      "matrix": [
        1,
        0,
        0,
        0,
        0,
        2.2204460492503131e-16,
        -1,
        0,
        0,
        1,
        2.2204460492503131e-16,
        0,
        131.55476379394531,
        0.0056443423964083195,
        27.313791275024414,
        1
      ],
      "name": "Apt_Walls"
    },
    {
      "children": [
        6
      ],
      "name": "polySurface9"
    },
    {
      "mesh": 0,
      "name": "polySurface9_wallmaterial_0"
    },
    {
      "children": [
        8
      ],
      "matrix": [
        1,
        0,
        0,
        0,
        0,
        2.2204460492503131e-16,
        -1,
        0,
        0,
        1,
        2.2204460492503131e-16,
        0,
        131.55476379394531,
        0.0056443423964083195,
        27.313791275024414,
        1
      ],
      "name": "Apt_Floor2"
    },
    {
      "mesh": 1,
      "name": "Apt_Floor2_FloorMaterial_0"
    }
  ],
  "samplers": [
    {
      "magFilter": 9729,
      "minFilter": 9987,
      "wrapS": 10497,
      "wrapT": 10497
    }
  ],
  "scene": 0,
  "scenes": [
    {
      "name": "OSG_Scene",
      "nodes": [
        0
      ]
    }
  ],
  "textures": [
    {
      "sampler": 0,
      "source": 0
    },
    {
      "sampler": 0,
      "source": 1
    }
  ]
}

