{"accessors":[{"name":"Apt_Walls_1_positions","componentType":5126,"count":968,"min":[-8.039084434509277,0.005644000135362148,-5.832251071929932],"max":[4.84079122543335,3.2556440830230713,8.262758255004883],"type":"VEC3","bufferView":0,"byteOffset":0},{"name":"Apt_Walls_1_normals","componentType":5126,"count":968,"min":[-1,-1,-1],"max":[1,1,1],"type":"VEC3","bufferView":0,"byteOffset":11616},{"name":"Apt_Walls_1_texcoords","componentType":5126,"count":968,"min":[0,0.11108800023794174],"max":[0.9985349774360657,1],"type":"VEC2","bufferView":1,"byteOffset":0},{"name":"Apt_Walls_1_0_indices","componentType":5123,"count":1254,"min":[0],"max":[967],"type":"SCALAR","bufferView":2,"byteOffset":0}],"asset":{"generator":"obj2gltf","version":"2.0"},"buffers":[{"name":"input","byteLength":33484,"uri":"data:application/octet-stream;base64,"}],"bufferViews":[{"name":"bufferView_0","buffer":0,"byteLength":23232,"byteOffset":0,"byteStride":12,"target":34962},{"name":"bufferView_1","buffer":0,"byteLength":7744,"byteOffset":23232,"byteStride":8,"target":34962},{"name":"bufferView_2","buffer":0,"byteLength":2508,"byteOffset":30976,"target":34963}],"materials":[{"name":"lambert2SG","pbrMetallicRoughness":{"baseColorFactor":[0.5,0.5,0.5,1],"metallicFactor":0,"roughnessFactor":1},"emissiveFactor":[0,0,0],"alphaMode":"OPAQUE","doubleSided":false}],"meshes":[{"name":"Apt_Walls_1","primitives":[{"attributes":{"POSITION":0,"NORMAL":1,"TEXCOORD_0":2},"indices":3,"material":0,"mode":4}]}],"nodes":[{"name":"Apt_Walls","mesh":0}],"scene":0,"scenes":[{"nodes":[0]}]}
