{"accessors":[{"name":"Apt_Floor2_1_positions","componentType":5126,"count":260,"min":[-7.639090061187744,0.005644000135362148,-5.832251071929932],"max":[4.440796852111816,0.005644000135362148,8.262758255004883],"type":"VEC3","bufferView":0,"byteOffset":0},{"name":"Apt_Floor2_1_normals","componentType":5126,"count":260,"min":[0,1,0],"max":[0,1,0],"type":"VEC3","bufferView":0,"byteOffset":3120},{"name":"Apt_Floor2_1_texcoords","componentType":5126,"count":260,"min":[0,0.0067090000957250595],"max":[0.9951559901237488,1],"type":"VEC2","bufferView":1,"byteOffset":0},{"name":"Apt_Floor2_1_0_indices","componentType":5123,"count":276,"min":[0],"max":[259],"type":"SCALAR","bufferView":2,"byteOffset":0}],"asset":{"generator":"obj2gltf","version":"2.0"},"buffers":[{"name":"input","byteLength":8872,"uri":"data:application/octet-stream;base64,"}],"bufferViews":[{"name":"bufferView_0","buffer":0,"byteLength":6240,"byteOffset":0,"byteStride":12,"target":34962},{"name":"bufferView_1","buffer":0,"byteLength":2080,"byteOffset":6240,"byteStride":8,"target":34962},{"name":"bufferView_2","buffer":0,"byteLength":552,"byteOffset":8320,"target":34963}],"materials":[{"name":"initialShadingGroup","pbrMetallicRoughness":{"baseColorFactor":[0.5,0.5,0.5,1],"metallicFactor":0,"roughnessFactor":1},"emissiveFactor":[0,0,0],"alphaMode":"OPAQUE","doubleSided":false}],"meshes":[{"name":"Apt_Floor2_1","primitives":[{"attributes":{"POSITION":0,"NORMAL":1,"TEXCOORD_0":2},"indices":3,"material":0,"mode":4}]}],"nodes":[{"name":"Apt_Floor2","mesh":0}],"scene":0,"scenes":[{"nodes":[0]}]}
