{"accessors":[{"name":"Navmesh_1_positions","componentType":5126,"count":251,"min":[-7.439093112945557,0.05564400181174278,-5.63224983215332],"max":[4.240793228149414,0.05564400181174278,8.062756538391113],"type":"VEC3","bufferView":0,"byteOffset":0},{"name":"Navmesh_1_normals","componentType":5126,"count":251,"min":[0,1,0],"max":[0,1,0],"type":"VEC3","bufferView":0,"byteOffset":3012},{"name":"Navmesh_1_texcoords","componentType":5126,"count":251,"min":[0.00980400014668703,0.00980400014668703],"max":[0.9901959896087646,0.9901959896087646],"type":"VEC2","bufferView":1,"byteOffset":0},{"name":"Navmesh_1_0_indices","componentType":5123,"count":267,"min":[0],"max":[250],"type":"SCALAR","bufferView":2,"byteOffset":0}],"asset":{"generator":"obj2gltf","version":"2.0"},"buffers":[{"name":"input","byteLength":8568,"uri":"data:application/octet-stream;base64,"}],"bufferViews":[{"name":"bufferView_0","buffer":0,"byteLength":6024,"byteOffset":0,"byteStride":12,"target":34962},{"name":"bufferView_1","buffer":0,"byteLength":2008,"byteOffset":6024,"byteStride":8,"target":34962},{"name":"bufferView_2","buffer":0,"byteLength":536,"byteOffset":8032,"target":34963}],"materials":[{"name":"initialShadingGroup","pbrMetallicRoughness":{"baseColorFactor":[0.5,0.5,0.5,1],"metallicFactor":0,"roughnessFactor":1},"emissiveFactor":[0,0,0],"alphaMode":"OPAQUE","doubleSided":false}],"meshes":[{"name":"Navmesh_1","primitives":[{"attributes":{"POSITION":0,"NORMAL":1,"TEXCOORD_0":2},"indices":3,"material":0,"mode":4}]}],"nodes":[{"name":"Navmesh","mesh":0}],"scene":0,"scenes":[{"nodes":[0]}]}
